<mxfile host="app.diagrams.net" modified="2021-09-28T17:57:26.377Z" agent="5.0 (Windows NT 10.0; Win64; x64) AppleWebKit/537.36 (KHTML, like Gecko) Chrome/93.0.4577.82 Safari/537.36" etag="5zF-0dK6qhh4zw6F1sd5" version="15.3.7" type="github">
  <diagram id="prtHgNgQTEPvFCAcTncT" name="Page-1">
    <mxGraphModel dx="868" dy="425" grid="1" gridSize="10" guides="1" tooltips="1" connect="1" arrows="1" fold="1" page="1" pageScale="1" pageWidth="827" pageHeight="1169" math="0" shadow="0">
      <root>
        <mxCell id="0" />
        <mxCell id="1" parent="0" />
        <mxCell id="SnzwPMzrApXxFTvkDAGG-2" value="KETUA PENDAFTAR, PEGAWAI SYARIAH&#xa;GRED LS52" style="swimlane;fontStyle=1;childLayout=stackLayout;horizontal=1;startSize=40;horizontalStack=0;resizeParent=1;resizeParentMax=0;resizeLast=0;collapsible=1;marginBottom=0;fontFamily=Times New Roman;verticalAlign=middle;spacingTop=1;fillColor=#bac8d3;strokeColor=#23445d;" vertex="1" parent="1">
          <mxGeometry x="240" y="130" width="320" height="66" as="geometry" />
        </mxCell>
        <mxCell id="SnzwPMzrApXxFTvkDAGG-3" value="TUAN MOHAMMAD ZULKHAIRI BIN AZIZ" style="text;align=center;verticalAlign=top;spacingLeft=4;spacingRight=4;overflow=hidden;rotatable=0;points=[[0,0.5],[1,0.5]];portConstraint=eastwest;fontFamily=Times New Roman;spacingTop=1;" vertex="1" parent="SnzwPMzrApXxFTvkDAGG-2">
          <mxGeometry y="40" width="320" height="26" as="geometry" />
        </mxCell>
        <mxCell id="SnzwPMzrApXxFTvkDAGG-11" value="JURUTEKNIK KOMPUTER FT22" style="swimlane;fontStyle=1;childLayout=stackLayout;horizontal=1;startSize=40;horizontalStack=0;resizeParent=1;resizeParentMax=0;resizeLast=0;collapsible=1;marginBottom=0;fontFamily=Times New Roman;verticalAlign=middle;spacingTop=1;fillColor=#bac8d3;strokeColor=#23445d;" vertex="1" parent="1">
          <mxGeometry x="240" y="590" width="320" height="66" as="geometry" />
        </mxCell>
        <mxCell id="SnzwPMzrApXxFTvkDAGG-12" value="ENCIK AHMAD RIFAI BIN ROSE" style="text;align=center;verticalAlign=top;spacingLeft=4;spacingRight=4;overflow=hidden;rotatable=0;points=[[0,0.5],[1,0.5]];portConstraint=eastwest;fontFamily=Times New Roman;spacingTop=1;" vertex="1" parent="SnzwPMzrApXxFTvkDAGG-11">
          <mxGeometry y="40" width="320" height="26" as="geometry" />
        </mxCell>
        <mxCell id="SnzwPMzrApXxFTvkDAGG-13" value="PELAJAR LATIHAN INDUSTRI" style="swimlane;fontStyle=1;childLayout=stackLayout;horizontal=1;startSize=30;horizontalStack=0;resizeParent=1;resizeParentMax=0;resizeLast=0;collapsible=1;marginBottom=0;fontFamily=Times New Roman;verticalAlign=middle;spacingTop=1;fillColor=#bac8d3;strokeColor=#23445d;" vertex="1" parent="1">
          <mxGeometry x="440" y="420" width="240" height="56" as="geometry" />
        </mxCell>
        <mxCell id="SnzwPMzrApXxFTvkDAGG-14" value="NAZARIFAH NAZURAH BINTI RONZI" style="text;align=center;verticalAlign=top;spacingLeft=4;spacingRight=4;overflow=hidden;rotatable=0;points=[[0,0.5],[1,0.5]];portConstraint=eastwest;fontFamily=Times New Roman;spacingTop=1;" vertex="1" parent="SnzwPMzrApXxFTvkDAGG-13">
          <mxGeometry y="30" width="240" height="26" as="geometry" />
        </mxCell>
        <mxCell id="SnzwPMzrApXxFTvkDAGG-15" value="KETUA HAKIM SYARIE, PEGAWAI SYARIAH&#xa;GRED UTAMA C (VU7)" style="swimlane;fontStyle=1;childLayout=stackLayout;horizontal=1;startSize=40;horizontalStack=0;resizeParent=1;resizeParentMax=0;resizeLast=0;collapsible=1;marginBottom=0;fontFamily=Times New Roman;verticalAlign=middle;spacingTop=1;labelBackgroundColor=none;fillColor=#bac8d3;strokeColor=#23445d;" vertex="1" parent="1">
          <mxGeometry x="240" y="40" width="320" height="66" as="geometry" />
        </mxCell>
        <mxCell id="SnzwPMzrApXxFTvkDAGG-16" value="YAA DATUK MOHD NADZRI BIN ABDUL RAHMAN" style="text;align=center;verticalAlign=top;spacingLeft=4;spacingRight=4;overflow=hidden;rotatable=0;points=[[0,0.5],[1,0.5]];portConstraint=eastwest;fontFamily=Times New Roman;spacingTop=1;" vertex="1" parent="SnzwPMzrApXxFTvkDAGG-15">
          <mxGeometry y="40" width="320" height="26" as="geometry" />
        </mxCell>
        <mxCell id="SnzwPMzrApXxFTvkDAGG-17" value="PENOLONG PEGAWAI TEKNOLOGI MAKLUMAT&#xa;GRED FA29 (KUP)" style="swimlane;fontStyle=1;childLayout=stackLayout;horizontal=1;startSize=40;horizontalStack=0;resizeParent=1;resizeParentMax=0;resizeLast=0;collapsible=1;marginBottom=0;fontFamily=Times New Roman;verticalAlign=middle;spacingTop=1;fillColor=#bac8d3;strokeColor=#23445d;" vertex="1" parent="1">
          <mxGeometry x="240" y="500" width="320" height="66" as="geometry" />
        </mxCell>
        <mxCell id="SnzwPMzrApXxFTvkDAGG-18" value="ENCIK MOHD SHAHER BIN ALIMAT @ ALUWI" style="text;align=center;verticalAlign=top;spacingLeft=4;spacingRight=4;overflow=hidden;rotatable=0;points=[[0,0.5],[1,0.5]];portConstraint=eastwest;fontFamily=Times New Roman;spacingTop=1;" vertex="1" parent="SnzwPMzrApXxFTvkDAGG-17">
          <mxGeometry y="40" width="320" height="26" as="geometry" />
        </mxCell>
        <mxCell id="SnzwPMzrApXxFTvkDAGG-19" value="KETUA UNIT ICT, PEGAWAI TEKNOLOGI MAKLUMAT&#xa;GRED F44 (M)" style="swimlane;fontStyle=1;childLayout=stackLayout;horizontal=1;startSize=40;horizontalStack=0;resizeParent=1;resizeParentMax=0;resizeLast=0;collapsible=1;marginBottom=0;fontFamily=Times New Roman;verticalAlign=middle;spacingTop=1;fillColor=#bac8d3;strokeColor=#23445d;" vertex="1" parent="1">
          <mxGeometry x="240" y="220" width="320" height="66" as="geometry" />
        </mxCell>
        <mxCell id="SnzwPMzrApXxFTvkDAGG-20" value="PUAN MASZLINA BINTI SAMSUDDIN" style="text;align=center;verticalAlign=top;spacingLeft=4;spacingRight=4;overflow=hidden;rotatable=0;points=[[0,0.5],[1,0.5]];portConstraint=eastwest;fontFamily=Times New Roman;spacingTop=1;" vertex="1" parent="SnzwPMzrApXxFTvkDAGG-19">
          <mxGeometry y="40" width="320" height="26" as="geometry" />
        </mxCell>
        <mxCell id="SnzwPMzrApXxFTvkDAGG-21" value="PENOLONG PEGAWAI TEKNOLOGI MAKLUMAT&#xa;GRED FA29" style="swimlane;fontStyle=1;childLayout=stackLayout;horizontal=1;startSize=40;horizontalStack=0;resizeParent=1;resizeParentMax=0;resizeLast=0;collapsible=1;marginBottom=0;fontFamily=Times New Roman;verticalAlign=middle;spacingTop=1;fillColor=#bac8d3;strokeColor=#23445d;" vertex="1" parent="1">
          <mxGeometry x="240" y="310" width="320" height="66" as="geometry" />
        </mxCell>
        <mxCell id="SnzwPMzrApXxFTvkDAGG-22" value="ENCIK ABDUL RAZAK BIN ALI" style="text;align=center;verticalAlign=top;spacingLeft=4;spacingRight=4;overflow=hidden;rotatable=0;points=[[0,0.5],[1,0.5]];portConstraint=eastwest;fontFamily=Times New Roman;spacingTop=1;" vertex="1" parent="SnzwPMzrApXxFTvkDAGG-21">
          <mxGeometry y="40" width="320" height="26" as="geometry" />
        </mxCell>
        <mxCell id="SnzwPMzrApXxFTvkDAGG-23" value="" style="endArrow=none;html=1;fontFamily=Times New Roman;exitX=0.5;exitY=0;exitDx=0;exitDy=0;" edge="1" parent="1" source="SnzwPMzrApXxFTvkDAGG-2" target="SnzwPMzrApXxFTvkDAGG-16">
          <mxGeometry width="50" height="50" relative="1" as="geometry">
            <mxPoint x="380" y="160" as="sourcePoint" />
            <mxPoint x="400" y="110" as="targetPoint" />
          </mxGeometry>
        </mxCell>
        <mxCell id="SnzwPMzrApXxFTvkDAGG-24" value="" style="endArrow=none;html=1;fontFamily=Times New Roman;" edge="1" parent="1" source="SnzwPMzrApXxFTvkDAGG-19" target="SnzwPMzrApXxFTvkDAGG-3">
          <mxGeometry width="50" height="50" relative="1" as="geometry">
            <mxPoint x="399.5" y="240" as="sourcePoint" />
            <mxPoint x="399.5" y="206" as="targetPoint" />
          </mxGeometry>
        </mxCell>
        <mxCell id="SnzwPMzrApXxFTvkDAGG-25" value="" style="endArrow=none;html=1;fontFamily=Times New Roman;exitX=0.5;exitY=0;exitDx=0;exitDy=0;" edge="1" parent="1" source="SnzwPMzrApXxFTvkDAGG-21" target="SnzwPMzrApXxFTvkDAGG-20">
          <mxGeometry width="50" height="50" relative="1" as="geometry">
            <mxPoint x="399.5" y="340" as="sourcePoint" />
            <mxPoint x="399.5" y="306" as="targetPoint" />
          </mxGeometry>
        </mxCell>
        <mxCell id="SnzwPMzrApXxFTvkDAGG-26" value="" style="endArrow=none;html=1;fontFamily=Times New Roman;exitX=0.5;exitY=0;exitDx=0;exitDy=0;" edge="1" parent="1" source="SnzwPMzrApXxFTvkDAGG-11" target="SnzwPMzrApXxFTvkDAGG-18">
          <mxGeometry width="50" height="50" relative="1" as="geometry">
            <mxPoint x="399.5" y="640" as="sourcePoint" />
            <mxPoint x="399.5" y="606" as="targetPoint" />
          </mxGeometry>
        </mxCell>
        <mxCell id="SnzwPMzrApXxFTvkDAGG-28" value="" style="endArrow=none;html=1;fontFamily=Times New Roman;exitX=0.5;exitY=0;exitDx=0;exitDy=0;" edge="1" parent="1" source="SnzwPMzrApXxFTvkDAGG-17" target="SnzwPMzrApXxFTvkDAGG-22">
          <mxGeometry width="50" height="50" relative="1" as="geometry">
            <mxPoint x="399.5" y="490" as="sourcePoint" />
            <mxPoint x="399.5" y="456" as="targetPoint" />
          </mxGeometry>
        </mxCell>
        <mxCell id="SnzwPMzrApXxFTvkDAGG-29" value="" style="endArrow=none;html=1;fontFamily=Times New Roman;" edge="1" parent="1">
          <mxGeometry width="50" height="50" relative="1" as="geometry">
            <mxPoint x="400" y="400" as="sourcePoint" />
            <mxPoint x="560" y="400" as="targetPoint" />
          </mxGeometry>
        </mxCell>
        <mxCell id="SnzwPMzrApXxFTvkDAGG-30" value="" style="endArrow=none;html=1;fontFamily=Times New Roman;exitX=0.5;exitY=0;exitDx=0;exitDy=0;" edge="1" parent="1" source="SnzwPMzrApXxFTvkDAGG-13">
          <mxGeometry width="50" height="50" relative="1" as="geometry">
            <mxPoint x="540" y="440" as="sourcePoint" />
            <mxPoint x="560" y="400" as="targetPoint" />
          </mxGeometry>
        </mxCell>
      </root>
    </mxGraphModel>
  </diagram>
</mxfile>
